solid OpenSCAD_Model
  facet normal 1 -0 0
    outer loop
      vertex 42.1 0 1.6
      vertex 42.1 40.3 0
      vertex 42.1 40.3 1.6
    endloop
  endfacet
  facet normal 1 0 0
    outer loop
      vertex 42.1 40.3 0
      vertex 42.1 0 1.6
      vertex 42.1 0 0
    endloop
  endfacet
  facet normal 0 0 1
    outer loop
      vertex 42.1 40.3 1.6
      vertex 40.3 38.5 1.6
      vertex 42.1 0 1.6
    endloop
  endfacet
  facet normal 0 0 1
    outer loop
      vertex 42.1 40.3 1.6
      vertex 27.05 38.5 1.6
      vertex 40.3 38.5 1.6
    endloop
  endfacet
  facet normal 0 0 1
    outer loop
      vertex 27.05 38.5 1.6
      vertex 15.05 38.5 1.6
      vertex 27.05 37.2 1.6
    endloop
  endfacet
  facet normal 0 0 1
    outer loop
      vertex 42.1 40.3 1.6
      vertex 15.05 38.5 1.6
      vertex 27.05 38.5 1.6
    endloop
  endfacet
  facet normal -0 0 1
    outer loop
      vertex 0 40.3 1.6
      vertex 15.05 38.5 1.6
      vertex 42.1 40.3 1.6
    endloop
  endfacet
  facet normal 0 0 1
    outer loop
      vertex 1.8 38.5 1.6
      vertex 0 40.3 1.6
      vertex 1.8 1.8 1.6
    endloop
  endfacet
  facet normal 0 0 1
    outer loop
      vertex 15.05 38.5 1.6
      vertex 0 40.3 1.6
      vertex 1.8 38.5 1.6
    endloop
  endfacet
  facet normal -0 0 1
    outer loop
      vertex 40.3 1.8 1.6
      vertex 42.1 0 1.6
      vertex 40.3 38.5 1.6
    endloop
  endfacet
  facet normal -0 0 1
    outer loop
      vertex 1.8 1.8 1.6
      vertex 42.1 0 1.6
      vertex 40.3 1.8 1.6
    endloop
  endfacet
  facet normal 0 0 1
    outer loop
      vertex 1.8 1.8 1.6
      vertex 0 0 1.6
      vertex 42.1 0 1.6
    endloop
  endfacet
  facet normal 0 0 1
    outer loop
      vertex 0 0 1.6
      vertex 1.8 1.8 1.6
      vertex 0 40.3 1.6
    endloop
  endfacet
  facet normal 0 0 1
    outer loop
      vertex 27.05 37.2 1.6
      vertex 15.05 38.5 1.6
      vertex 15.05 37.2 1.6
    endloop
  endfacet
  facet normal 0 0 1
    outer loop
      vertex 37.6 35.8 1.6
      vertex 37.3 22.54 1.6
      vertex 37.6 4.5 1.6
    endloop
  endfacet
  facet normal 0 0 1
    outer loop
      vertex 37.6 35.8 1.6
      vertex 4.8 22.54 1.6
      vertex 37.3 22.54 1.6
    endloop
  endfacet
  facet normal 0 0 1
    outer loop
      vertex 4.5 4.5 1.6
      vertex 4.8 22.54 1.6
      vertex 4.5 35.8 1.6
    endloop
  endfacet
  facet normal -0 0 1
    outer loop
      vertex 4.5 35.8 1.6
      vertex 4.8 22.54 1.6
      vertex 37.6 35.8 1.6
    endloop
  endfacet
  facet normal -0 0 1
    outer loop
      vertex 37.3 4.84 1.6
      vertex 37.6 4.5 1.6
      vertex 37.3 22.54 1.6
    endloop
  endfacet
  facet normal -0 0 1
    outer loop
      vertex 4.8 4.84 1.6
      vertex 37.6 4.5 1.6
      vertex 37.3 4.84 1.6
    endloop
  endfacet
  facet normal 0 0 1
    outer loop
      vertex 4.8 4.84 1.6
      vertex 4.5 4.5 1.6
      vertex 37.6 4.5 1.6
    endloop
  endfacet
  facet normal 0 0 1
    outer loop
      vertex 4.8 22.54 1.6
      vertex 4.5 4.5 1.6
      vertex 4.8 4.84 1.6
    endloop
  endfacet
  facet normal 0 0 -1
    outer loop
      vertex 37.3 22.54 0
      vertex 42.1 0 0
      vertex 37.3 4.84 0
    endloop
  endfacet
  facet normal 0 0 -1
    outer loop
      vertex 42.1 0 0
      vertex 4.8 4.84 0
      vertex 37.3 4.84 0
    endloop
  endfacet
  facet normal -0 0 -1
    outer loop
      vertex 4.8 4.84 0
      vertex 0 0 0
      vertex 4.8 22.54 0
    endloop
  endfacet
  facet normal 0 0 -1
    outer loop
      vertex 0 0 0
      vertex 4.8 4.84 0
      vertex 42.1 0 0
    endloop
  endfacet
  facet normal 0 0 -1
    outer loop
      vertex 42.1 0 0
      vertex 37.3 22.54 0
      vertex 42.1 40.3 0
    endloop
  endfacet
  facet normal 0 0 -1
    outer loop
      vertex 4.8 22.54 0
      vertex 42.1 40.3 0
      vertex 37.3 22.54 0
    endloop
  endfacet
  facet normal 0 0 -1
    outer loop
      vertex 4.8 22.54 0
      vertex 0 40.3 0
      vertex 42.1 40.3 0
    endloop
  endfacet
  facet normal 0 0 -1
    outer loop
      vertex 0 40.3 0
      vertex 4.8 22.54 0
      vertex 0 0 0
    endloop
  endfacet
  facet normal -1 0 0
    outer loop
      vertex 0 0 0
      vertex 0 40.3 1.6
      vertex 0 40.3 0
    endloop
  endfacet
  facet normal -1 -0 0
    outer loop
      vertex 0 40.3 1.6
      vertex 0 0 0
      vertex 0 0 1.6
    endloop
  endfacet
  facet normal 0 1 -0
    outer loop
      vertex 42.1 40.3 0
      vertex 0 40.3 1.6
      vertex 42.1 40.3 1.6
    endloop
  endfacet
  facet normal 0 1 0
    outer loop
      vertex 0 40.3 1.6
      vertex 42.1 40.3 0
      vertex 0 40.3 0
    endloop
  endfacet
  facet normal 0 -1 0
    outer loop
      vertex 0 0 0
      vertex 42.1 0 1.6
      vertex 0 0 1.6
    endloop
  endfacet
  facet normal 0 -1 -0
    outer loop
      vertex 42.1 0 1.6
      vertex 0 0 0
      vertex 42.1 0 0
    endloop
  endfacet
  facet normal -1 0 0
    outer loop
      vertex 37.3 4.84 0
      vertex 37.3 22.54 1.6
      vertex 37.3 22.54 0
    endloop
  endfacet
  facet normal -1 -0 0
    outer loop
      vertex 37.3 22.54 1.6
      vertex 37.3 4.84 0
      vertex 37.3 4.84 1.6
    endloop
  endfacet
  facet normal 1 -0 0
    outer loop
      vertex 4.8 4.84 1.6
      vertex 4.8 22.54 0
      vertex 4.8 22.54 1.6
    endloop
  endfacet
  facet normal 1 0 0
    outer loop
      vertex 4.8 22.54 0
      vertex 4.8 4.84 1.6
      vertex 4.8 4.84 0
    endloop
  endfacet
  facet normal 0 -1 0
    outer loop
      vertex 4.8 22.54 0
      vertex 37.3 22.54 1.6
      vertex 4.8 22.54 1.6
    endloop
  endfacet
  facet normal 0 -1 -0
    outer loop
      vertex 37.3 22.54 1.6
      vertex 4.8 22.54 0
      vertex 37.3 22.54 0
    endloop
  endfacet
  facet normal 0 1 -0
    outer loop
      vertex 37.3 4.84 0
      vertex 4.8 4.84 1.6
      vertex 37.3 4.84 1.6
    endloop
  endfacet
  facet normal 0 1 0
    outer loop
      vertex 4.8 4.84 1.6
      vertex 37.3 4.84 0
      vertex 4.8 4.84 0
    endloop
  endfacet
  facet normal 1 -0 0
    outer loop
      vertex 40.3 1.8 4.7
      vertex 40.3 38.5 1.6
      vertex 40.3 38.5 4.7
    endloop
  endfacet
  facet normal 1 0 0
    outer loop
      vertex 40.3 38.5 1.6
      vertex 40.3 1.8 4.7
      vertex 40.3 1.8 1.6
    endloop
  endfacet
  facet normal 0 0 1
    outer loop
      vertex 15.05 38.5 4.7
      vertex 3 37.3 4.7
      vertex 15.05 37.3 4.7
    endloop
  endfacet
  facet normal 0 0 1
    outer loop
      vertex 3 37.3 4.7
      vertex 1.8 38.5 4.7
      vertex 3 3 4.7
    endloop
  endfacet
  facet normal -0 0 1
    outer loop
      vertex 1.8 38.5 4.7
      vertex 3 37.3 4.7
      vertex 15.05 38.5 4.7
    endloop
  endfacet
  facet normal 0 0 1
    outer loop
      vertex 40.3 38.5 4.7
      vertex 39.1 37.3 4.7
      vertex 40.3 1.8 4.7
    endloop
  endfacet
  facet normal -0 0 1
    outer loop
      vertex 27.05 38.5 4.7
      vertex 39.1 37.3 4.7
      vertex 40.3 38.5 4.7
    endloop
  endfacet
  facet normal 0 0 1
    outer loop
      vertex 39.1 37.3 4.7
      vertex 27.05 38.5 4.7
      vertex 27.05 37.3 4.7
    endloop
  endfacet
  facet normal -0 0 1
    outer loop
      vertex 39.1 3 4.7
      vertex 40.3 1.8 4.7
      vertex 39.1 37.3 4.7
    endloop
  endfacet
  facet normal -0 0 1
    outer loop
      vertex 3 3 4.7
      vertex 40.3 1.8 4.7
      vertex 39.1 3 4.7
    endloop
  endfacet
  facet normal 0 0 1
    outer loop
      vertex 3 3 4.7
      vertex 1.8 1.8 4.7
      vertex 40.3 1.8 4.7
    endloop
  endfacet
  facet normal 0 0 1
    outer loop
      vertex 1.8 1.8 4.7
      vertex 3 3 4.7
      vertex 1.8 38.5 4.7
    endloop
  endfacet
  facet normal -1 0 0
    outer loop
      vertex 1.8 1.8 1.6
      vertex 1.8 38.5 4.7
      vertex 1.8 38.5 1.6
    endloop
  endfacet
  facet normal -1 -0 0
    outer loop
      vertex 1.8 38.5 4.7
      vertex 1.8 1.8 1.6
      vertex 1.8 1.8 4.7
    endloop
  endfacet
  facet normal 0 1 -0
    outer loop
      vertex 15.05 38.5 1.6
      vertex 1.8 38.5 4.7
      vertex 15.05 38.5 4.7
    endloop
  endfacet
  facet normal 0 1 0
    outer loop
      vertex 1.8 38.5 4.7
      vertex 15.05 38.5 1.6
      vertex 1.8 38.5 1.6
    endloop
  endfacet
  facet normal 0 1 -0
    outer loop
      vertex 40.3 38.5 1.6
      vertex 27.05 38.5 4.7
      vertex 40.3 38.5 4.7
    endloop
  endfacet
  facet normal 0 1 0
    outer loop
      vertex 27.05 38.5 4.7
      vertex 40.3 38.5 1.6
      vertex 27.05 38.5 1.6
    endloop
  endfacet
  facet normal 0 -1 0
    outer loop
      vertex 1.8 1.8 1.6
      vertex 40.3 1.8 4.7
      vertex 1.8 1.8 4.7
    endloop
  endfacet
  facet normal 0 -1 -0
    outer loop
      vertex 40.3 1.8 4.7
      vertex 1.8 1.8 1.6
      vertex 40.3 1.8 1.6
    endloop
  endfacet
  facet normal -1 0 0
    outer loop
      vertex 39.1 3 2.6
      vertex 39.1 37.3 4.7
      vertex 39.1 37.3 2.6
    endloop
  endfacet
  facet normal -1 -0 0
    outer loop
      vertex 39.1 37.3 4.7
      vertex 39.1 3 2.6
      vertex 39.1 3 4.7
    endloop
  endfacet
  facet normal 0 0 1
    outer loop
      vertex 15.05 37.3 2.6
      vertex 4.5 35.8 2.6
      vertex 15.05 37.2 2.6
    endloop
  endfacet
  facet normal 0 0 1
    outer loop
      vertex 4.5 35.8 2.6
      vertex 3 37.3 2.6
      vertex 4.5 4.5 2.6
    endloop
  endfacet
  facet normal -0 0 1
    outer loop
      vertex 3 37.3 2.6
      vertex 4.5 35.8 2.6
      vertex 15.05 37.3 2.6
    endloop
  endfacet
  facet normal 0 0 1
    outer loop
      vertex 39.1 37.3 2.6
      vertex 37.6 35.8 2.6
      vertex 39.1 3 2.6
    endloop
  endfacet
  facet normal -0 0 1
    outer loop
      vertex 27.05 37.3 2.6
      vertex 37.6 35.8 2.6
      vertex 39.1 37.3 2.6
    endloop
  endfacet
  facet normal -0 0 1
    outer loop
      vertex 27.05 37.2 2.6
      vertex 37.6 35.8 2.6
      vertex 27.05 37.3 2.6
    endloop
  endfacet
  facet normal -0 0 1
    outer loop
      vertex 15.05 37.2 2.6
      vertex 37.6 35.8 2.6
      vertex 27.05 37.2 2.6
    endloop
  endfacet
  facet normal 0 0 1
    outer loop
      vertex 37.6 35.8 2.6
      vertex 15.05 37.2 2.6
      vertex 4.5 35.8 2.6
    endloop
  endfacet
  facet normal -0 0 1
    outer loop
      vertex 37.6 4.5 2.6
      vertex 39.1 3 2.6
      vertex 37.6 35.8 2.6
    endloop
  endfacet
  facet normal -0 0 1
    outer loop
      vertex 4.5 4.5 2.6
      vertex 39.1 3 2.6
      vertex 37.6 4.5 2.6
    endloop
  endfacet
  facet normal 0 0 1
    outer loop
      vertex 4.5 4.5 2.6
      vertex 3 3 2.6
      vertex 39.1 3 2.6
    endloop
  endfacet
  facet normal 0 0 1
    outer loop
      vertex 3 3 2.6
      vertex 4.5 4.5 2.6
      vertex 3 37.3 2.6
    endloop
  endfacet
  facet normal 1 -0 0
    outer loop
      vertex 3 3 4.7
      vertex 3 37.3 2.6
      vertex 3 37.3 4.7
    endloop
  endfacet
  facet normal 1 0 0
    outer loop
      vertex 3 37.3 2.6
      vertex 3 3 4.7
      vertex 3 3 2.6
    endloop
  endfacet
  facet normal 0 -1 0
    outer loop
      vertex 27.05 37.3 2.6
      vertex 39.1 37.3 4.7
      vertex 27.05 37.3 4.7
    endloop
  endfacet
  facet normal 0 -1 -0
    outer loop
      vertex 39.1 37.3 4.7
      vertex 27.05 37.3 2.6
      vertex 39.1 37.3 2.6
    endloop
  endfacet
  facet normal 0 -1 0
    outer loop
      vertex 3 37.3 2.6
      vertex 15.05 37.3 4.7
      vertex 3 37.3 4.7
    endloop
  endfacet
  facet normal 0 -1 -0
    outer loop
      vertex 15.05 37.3 4.7
      vertex 3 37.3 2.6
      vertex 15.05 37.3 2.6
    endloop
  endfacet
  facet normal 0 1 -0
    outer loop
      vertex 39.1 3 2.6
      vertex 3 3 4.7
      vertex 39.1 3 4.7
    endloop
  endfacet
  facet normal 0 1 0
    outer loop
      vertex 3 3 4.7
      vertex 39.1 3 2.6
      vertex 3 3 2.6
    endloop
  endfacet
  facet normal -1 0 0
    outer loop
      vertex 37.6 4.5 1.6
      vertex 37.6 35.8 2.6
      vertex 37.6 35.8 1.6
    endloop
  endfacet
  facet normal -1 -0 0
    outer loop
      vertex 37.6 35.8 2.6
      vertex 37.6 4.5 1.6
      vertex 37.6 4.5 2.6
    endloop
  endfacet
  facet normal 1 -0 0
    outer loop
      vertex 4.5 4.5 2.6
      vertex 4.5 35.8 1.6
      vertex 4.5 35.8 2.6
    endloop
  endfacet
  facet normal 1 0 0
    outer loop
      vertex 4.5 35.8 1.6
      vertex 4.5 4.5 2.6
      vertex 4.5 4.5 1.6
    endloop
  endfacet
  facet normal 0 -1 0
    outer loop
      vertex 4.5 35.8 1.6
      vertex 37.6 35.8 2.6
      vertex 4.5 35.8 2.6
    endloop
  endfacet
  facet normal 0 -1 -0
    outer loop
      vertex 37.6 35.8 2.6
      vertex 4.5 35.8 1.6
      vertex 37.6 35.8 1.6
    endloop
  endfacet
  facet normal 0 1 -0
    outer loop
      vertex 37.6 4.5 1.6
      vertex 4.5 4.5 2.6
      vertex 37.6 4.5 2.6
    endloop
  endfacet
  facet normal 0 1 0
    outer loop
      vertex 4.5 4.5 2.6
      vertex 37.6 4.5 1.6
      vertex 4.5 4.5 1.6
    endloop
  endfacet
  facet normal -1 0 0
    outer loop
      vertex 27.05 38.5 1.6
      vertex 27.05 37.3 2.6
      vertex 27.05 38.5 4.7
    endloop
  endfacet
  facet normal -1 0 0
    outer loop
      vertex 27.05 37.2 1.6
      vertex 27.05 37.3 2.6
      vertex 27.05 38.5 1.6
    endloop
  endfacet
  facet normal -1 -0 0
    outer loop
      vertex 27.05 37.3 2.6
      vertex 27.05 37.2 1.6
      vertex 27.05 37.2 2.6
    endloop
  endfacet
  facet normal -1 -0 0
    outer loop
      vertex 27.05 38.5 4.7
      vertex 27.05 37.3 2.6
      vertex 27.05 37.3 4.7
    endloop
  endfacet
  facet normal 1 0 0
    outer loop
      vertex 15.05 37.3 2.6
      vertex 15.05 38.5 4.7
      vertex 15.05 37.3 4.7
    endloop
  endfacet
  facet normal 1 0 0
    outer loop
      vertex 15.05 38.5 4.7
      vertex 15.05 37.3 2.6
      vertex 15.05 38.5 1.6
    endloop
  endfacet
  facet normal 1 0 0
    outer loop
      vertex 15.05 37.2 1.6
      vertex 15.05 37.3 2.6
      vertex 15.05 37.2 2.6
    endloop
  endfacet
  facet normal 1 0 0
    outer loop
      vertex 15.05 37.3 2.6
      vertex 15.05 37.2 1.6
      vertex 15.05 38.5 1.6
    endloop
  endfacet
  facet normal 0 1 -0
    outer loop
      vertex 27.05 37.2 1.6
      vertex 15.05 37.2 2.6
      vertex 27.05 37.2 2.6
    endloop
  endfacet
  facet normal 0 1 0
    outer loop
      vertex 15.05 37.2 2.6
      vertex 27.05 37.2 1.6
      vertex 15.05 37.2 1.6
    endloop
  endfacet
  facet normal 1 0 0
    outer loop
      vertex 15.05 3 12.2
      vertex 15.05 1.8 11.2
      vertex 15.05 3 4.7
    endloop
  endfacet
  facet normal 1 -0 0
    outer loop
      vertex 15.05 0.8 12.2
      vertex 15.05 1.8 11.2
      vertex 15.05 3 12.2
    endloop
  endfacet
  facet normal 1 0 0
    outer loop
      vertex 15.05 1.8 11.2
      vertex 15.05 0.8 12.2
      vertex 15.05 0.8 11.2
    endloop
  endfacet
  facet normal 1 0 0
    outer loop
      vertex 15.05 3 4.7
      vertex 15.05 1.8 11.2
      vertex 15.05 1.8 4.7
    endloop
  endfacet
  facet normal -0 0 1
    outer loop
      vertex 7.05 3 12.2
      vertex 15.05 0.8 12.2
      vertex 15.05 3 12.2
    endloop
  endfacet
  facet normal 0 0 1
    outer loop
      vertex 15.05 0.8 12.2
      vertex 7.05 3 12.2
      vertex 7.05 0.8 12.2
    endloop
  endfacet
  facet normal 0 0 -1
    outer loop
      vertex 7.05 0.8 11.2
      vertex 15.05 1.8 11.2
      vertex 15.05 0.8 11.2
    endloop
  endfacet
  facet normal -0 0 -1
    outer loop
      vertex 15.05 1.8 11.2
      vertex 7.05 0.8 11.2
      vertex 7.05 1.8 11.2
    endloop
  endfacet
  facet normal -1 0 0
    outer loop
      vertex 7.05 1.8 11.2
      vertex 7.05 3 4.7
      vertex 7.05 1.8 4.7
    endloop
  endfacet
  facet normal -1 0 0
    outer loop
      vertex 7.05 3 4.7
      vertex 7.05 1.8 11.2
      vertex 7.05 3 12.2
    endloop
  endfacet
  facet normal -1 0 0
    outer loop
      vertex 7.05 0.8 12.2
      vertex 7.05 1.8 11.2
      vertex 7.05 0.8 11.2
    endloop
  endfacet
  facet normal -1 0 0
    outer loop
      vertex 7.05 1.8 11.2
      vertex 7.05 0.8 12.2
      vertex 7.05 3 12.2
    endloop
  endfacet
  facet normal 0 1 -0
    outer loop
      vertex 15.05 3 4.7
      vertex 7.05 3 12.2
      vertex 15.05 3 12.2
    endloop
  endfacet
  facet normal 0 1 0
    outer loop
      vertex 7.05 3 12.2
      vertex 15.05 3 4.7
      vertex 7.05 3 4.7
    endloop
  endfacet
  facet normal 0 -1 0
    outer loop
      vertex 7.05 0.8 11.2
      vertex 15.05 0.8 12.2
      vertex 7.05 0.8 12.2
    endloop
  endfacet
  facet normal 0 -1 -0
    outer loop
      vertex 15.05 0.8 12.2
      vertex 7.05 0.8 11.2
      vertex 15.05 0.8 11.2
    endloop
  endfacet
  facet normal 0 0 -1
    outer loop
      vertex 7.05 1.8 4.7
      vertex 15.05 3 4.7
      vertex 15.05 1.8 4.7
    endloop
  endfacet
  facet normal -0 0 -1
    outer loop
      vertex 15.05 3 4.7
      vertex 7.05 1.8 4.7
      vertex 7.05 3 4.7
    endloop
  endfacet
  facet normal 0 -1 0
    outer loop
      vertex 7.05 1.8 4.7
      vertex 15.05 1.8 11.2
      vertex 7.05 1.8 11.2
    endloop
  endfacet
  facet normal 0 -1 -0
    outer loop
      vertex 15.05 1.8 11.2
      vertex 7.05 1.8 4.7
      vertex 15.05 1.8 4.7
    endloop
  endfacet
  facet normal 1 0 0
    outer loop
      vertex 35.05 3 12.2
      vertex 35.05 1.8 11.2
      vertex 35.05 3 4.7
    endloop
  endfacet
  facet normal 1 -0 0
    outer loop
      vertex 35.05 0.8 12.2
      vertex 35.05 1.8 11.2
      vertex 35.05 3 12.2
    endloop
  endfacet
  facet normal 1 0 0
    outer loop
      vertex 35.05 1.8 11.2
      vertex 35.05 0.8 12.2
      vertex 35.05 0.8 11.2
    endloop
  endfacet
  facet normal 1 0 0
    outer loop
      vertex 35.05 3 4.7
      vertex 35.05 1.8 11.2
      vertex 35.05 1.8 4.7
    endloop
  endfacet
  facet normal -0 0 1
    outer loop
      vertex 27.05 3 12.2
      vertex 35.05 0.8 12.2
      vertex 35.05 3 12.2
    endloop
  endfacet
  facet normal 0 0 1
    outer loop
      vertex 35.05 0.8 12.2
      vertex 27.05 3 12.2
      vertex 27.05 0.8 12.2
    endloop
  endfacet
  facet normal 0 0 -1
    outer loop
      vertex 27.05 0.8 11.2
      vertex 35.05 1.8 11.2
      vertex 35.05 0.8 11.2
    endloop
  endfacet
  facet normal -0 0 -1
    outer loop
      vertex 35.05 1.8 11.2
      vertex 27.05 0.8 11.2
      vertex 27.05 1.8 11.2
    endloop
  endfacet
  facet normal -1 0 0
    outer loop
      vertex 27.05 1.8 11.2
      vertex 27.05 3 4.7
      vertex 27.05 1.8 4.7
    endloop
  endfacet
  facet normal -1 0 0
    outer loop
      vertex 27.05 3 4.7
      vertex 27.05 1.8 11.2
      vertex 27.05 3 12.2
    endloop
  endfacet
  facet normal -1 0 0
    outer loop
      vertex 27.05 0.8 12.2
      vertex 27.05 1.8 11.2
      vertex 27.05 0.8 11.2
    endloop
  endfacet
  facet normal -1 0 0
    outer loop
      vertex 27.05 1.8 11.2
      vertex 27.05 0.8 12.2
      vertex 27.05 3 12.2
    endloop
  endfacet
  facet normal 0 1 -0
    outer loop
      vertex 35.05 3 4.7
      vertex 27.05 3 12.2
      vertex 35.05 3 12.2
    endloop
  endfacet
  facet normal 0 1 0
    outer loop
      vertex 27.05 3 12.2
      vertex 35.05 3 4.7
      vertex 27.05 3 4.7
    endloop
  endfacet
  facet normal 0 -1 0
    outer loop
      vertex 27.05 0.8 11.2
      vertex 35.05 0.8 12.2
      vertex 27.05 0.8 12.2
    endloop
  endfacet
  facet normal 0 -1 -0
    outer loop
      vertex 35.05 0.8 12.2
      vertex 27.05 0.8 11.2
      vertex 35.05 0.8 11.2
    endloop
  endfacet
  facet normal 0 0 -1
    outer loop
      vertex 27.05 1.8 4.7
      vertex 35.05 3 4.7
      vertex 35.05 1.8 4.7
    endloop
  endfacet
  facet normal -0 0 -1
    outer loop
      vertex 35.05 3 4.7
      vertex 27.05 1.8 4.7
      vertex 27.05 3 4.7
    endloop
  endfacet
  facet normal 0 -1 0
    outer loop
      vertex 27.05 1.8 4.7
      vertex 35.05 1.8 11.2
      vertex 27.05 1.8 11.2
    endloop
  endfacet
  facet normal 0 -1 -0
    outer loop
      vertex 35.05 1.8 11.2
      vertex 27.05 1.8 4.7
      vertex 35.05 1.8 4.7
    endloop
  endfacet
  facet normal 0 -1 0
    outer loop
      vertex 1.8 11.15 11.2
      vertex 0.8 11.15 12.2
      vertex 0.8 11.15 11.2
    endloop
  endfacet
  facet normal 0 -1 0
    outer loop
      vertex 0.8 11.15 12.2
      vertex 1.8 11.15 11.2
      vertex 3 11.15 12.2
    endloop
  endfacet
  facet normal 0 -1 0
    outer loop
      vertex 3 11.15 4.7
      vertex 1.8 11.15 11.2
      vertex 1.8 11.15 4.7
    endloop
  endfacet
  facet normal 0 -1 0
    outer loop
      vertex 1.8 11.15 11.2
      vertex 3 11.15 4.7
      vertex 3 11.15 12.2
    endloop
  endfacet
  facet normal -0 0 1
    outer loop
      vertex 0.8 19.15 12.2
      vertex 3 11.15 12.2
      vertex 3 19.15 12.2
    endloop
  endfacet
  facet normal 0 0 1
    outer loop
      vertex 3 11.15 12.2
      vertex 0.8 19.15 12.2
      vertex 0.8 11.15 12.2
    endloop
  endfacet
  facet normal 0 0 -1
    outer loop
      vertex 0.8 11.15 11.2
      vertex 1.8 19.15 11.2
      vertex 1.8 11.15 11.2
    endloop
  endfacet
  facet normal -0 0 -1
    outer loop
      vertex 1.8 19.15 11.2
      vertex 0.8 11.15 11.2
      vertex 0.8 19.15 11.2
    endloop
  endfacet
  facet normal 0 1 0
    outer loop
      vertex 3 19.15 12.2
      vertex 1.8 19.15 11.2
      vertex 0.8 19.15 12.2
    endloop
  endfacet
  facet normal 0 1 -0
    outer loop
      vertex 3 19.15 4.7
      vertex 1.8 19.15 11.2
      vertex 3 19.15 12.2
    endloop
  endfacet
  facet normal 0 1 0
    outer loop
      vertex 1.8 19.15 11.2
      vertex 3 19.15 4.7
      vertex 1.8 19.15 4.7
    endloop
  endfacet
  facet normal 0 1 0
    outer loop
      vertex 0.8 19.15 12.2
      vertex 1.8 19.15 11.2
      vertex 0.8 19.15 11.2
    endloop
  endfacet
  facet normal 1 -0 0
    outer loop
      vertex 3 11.15 12.2
      vertex 3 19.15 4.7
      vertex 3 19.15 12.2
    endloop
  endfacet
  facet normal 1 0 0
    outer loop
      vertex 3 19.15 4.7
      vertex 3 11.15 12.2
      vertex 3 11.15 4.7
    endloop
  endfacet
  facet normal -1 0 0
    outer loop
      vertex 0.8 11.15 11.2
      vertex 0.8 19.15 12.2
      vertex 0.8 19.15 11.2
    endloop
  endfacet
  facet normal -1 -0 0
    outer loop
      vertex 0.8 19.15 12.2
      vertex 0.8 11.15 11.2
      vertex 0.8 11.15 12.2
    endloop
  endfacet
  facet normal 0 0 -1
    outer loop
      vertex 1.8 11.15 4.7
      vertex 3 19.15 4.7
      vertex 3 11.15 4.7
    endloop
  endfacet
  facet normal -0 0 -1
    outer loop
      vertex 3 19.15 4.7
      vertex 1.8 11.15 4.7
      vertex 1.8 19.15 4.7
    endloop
  endfacet
  facet normal -1 0 0
    outer loop
      vertex 1.8 11.15 4.7
      vertex 1.8 19.15 11.2
      vertex 1.8 19.15 4.7
    endloop
  endfacet
  facet normal -1 -0 0
    outer loop
      vertex 1.8 19.15 11.2
      vertex 1.8 11.15 4.7
      vertex 1.8 11.15 11.2
    endloop
  endfacet
  facet normal 0 1 0
    outer loop
      vertex 40.3 19.15 11.2
      vertex 41.3 19.15 12.2
      vertex 41.3 19.15 11.2
    endloop
  endfacet
  facet normal 0 1 0
    outer loop
      vertex 41.3 19.15 12.2
      vertex 40.3 19.15 11.2
      vertex 39.1 19.15 12.2
    endloop
  endfacet
  facet normal 0 1 0
    outer loop
      vertex 39.1 19.15 4.7
      vertex 40.3 19.15 11.2
      vertex 40.3 19.15 4.7
    endloop
  endfacet
  facet normal 0 1 0
    outer loop
      vertex 40.3 19.15 11.2
      vertex 39.1 19.15 4.7
      vertex 39.1 19.15 12.2
    endloop
  endfacet
  facet normal -0 0 1
    outer loop
      vertex 39.1 19.15 12.2
      vertex 41.3 11.15 12.2
      vertex 41.3 19.15 12.2
    endloop
  endfacet
  facet normal 0 0 1
    outer loop
      vertex 41.3 11.15 12.2
      vertex 39.1 19.15 12.2
      vertex 39.1 11.15 12.2
    endloop
  endfacet
  facet normal 0 0 -1
    outer loop
      vertex 40.3 11.15 11.2
      vertex 41.3 19.15 11.2
      vertex 41.3 11.15 11.2
    endloop
  endfacet
  facet normal -0 0 -1
    outer loop
      vertex 41.3 19.15 11.2
      vertex 40.3 11.15 11.2
      vertex 40.3 19.15 11.2
    endloop
  endfacet
  facet normal 0 -1 0
    outer loop
      vertex 39.1 11.15 12.2
      vertex 40.3 11.15 11.2
      vertex 41.3 11.15 12.2
    endloop
  endfacet
  facet normal 0 -1 0
    outer loop
      vertex 39.1 11.15 4.7
      vertex 40.3 11.15 11.2
      vertex 39.1 11.15 12.2
    endloop
  endfacet
  facet normal 0 -1 -0
    outer loop
      vertex 40.3 11.15 11.2
      vertex 39.1 11.15 4.7
      vertex 40.3 11.15 4.7
    endloop
  endfacet
  facet normal 0 -1 -0
    outer loop
      vertex 41.3 11.15 12.2
      vertex 40.3 11.15 11.2
      vertex 41.3 11.15 11.2
    endloop
  endfacet
  facet normal -1 0 0
    outer loop
      vertex 39.1 11.15 4.7
      vertex 39.1 19.15 12.2
      vertex 39.1 19.15 4.7
    endloop
  endfacet
  facet normal -1 -0 0
    outer loop
      vertex 39.1 19.15 12.2
      vertex 39.1 11.15 4.7
      vertex 39.1 11.15 12.2
    endloop
  endfacet
  facet normal 1 -0 0
    outer loop
      vertex 41.3 11.15 12.2
      vertex 41.3 19.15 11.2
      vertex 41.3 19.15 12.2
    endloop
  endfacet
  facet normal 1 0 0
    outer loop
      vertex 41.3 19.15 11.2
      vertex 41.3 11.15 12.2
      vertex 41.3 11.15 11.2
    endloop
  endfacet
  facet normal 0 0 -1
    outer loop
      vertex 39.1 11.15 4.7
      vertex 40.3 19.15 4.7
      vertex 40.3 11.15 4.7
    endloop
  endfacet
  facet normal -0 0 -1
    outer loop
      vertex 40.3 19.15 4.7
      vertex 39.1 11.15 4.7
      vertex 39.1 19.15 4.7
    endloop
  endfacet
  facet normal 1 -0 0
    outer loop
      vertex 40.3 11.15 11.2
      vertex 40.3 19.15 4.7
      vertex 40.3 19.15 11.2
    endloop
  endfacet
  facet normal 1 0 0
    outer loop
      vertex 40.3 19.15 4.7
      vertex 40.3 11.15 11.2
      vertex 40.3 11.15 4.7
    endloop
  endfacet
endsolid OpenSCAD_Model
