#VRML V2.0 utf8
# Degson DG127-5.08-02P envelope box, 10.16 x 8.10 x 10.10 mm
Shape {
 appearance Appearance { material Material { diffuseColor 0.15 0.55 0.25 } }
 geometry IndexedFaceSet {
  coord Coordinate { point [
   -1.0000 -1.6535 0.0000,
   3.0000 -1.6535 0.0000,
   3.0000 1.5354 0.0000,
   -1.0000 1.5354 0.0000,
   -1.0000 -1.6535 3.9764,
   3.0000 -1.6535 3.9764,
   3.0000 1.5354 3.9764,
   -1.0000 1.5354 3.9764
  ] }
  coordIndex [
   0 3 2 1 -1,
   4 5 6 7 -1,
   0 1 5 4 -1,
   1 2 6 5 -1,
   2 3 7 6 -1,
   3 0 4 7 -1
  ]
  solid FALSE
 }
}
